<svg width="38" height="38" viewBox="0 0 38 38" fill="none" xmlns="http://www.w3.org/2000/svg">
<path d="M19.25 2.34375C10.1899 2.34375 2.84375 9.68994 2.84375 18.75C2.84375 27.8101 10.1899 35.1562 19.25 35.1562C28.3101 35.1562 35.6562 27.8101 35.6562 18.75C35.6562 9.68994 28.3101 2.34375 19.25 2.34375ZM27.1345 14.7107C27.1455 14.8828 27.1455 15.0623 27.1455 15.238C27.1455 20.614 23.0513 26.8066 15.5696 26.8066C13.2625 26.8066 11.1238 26.1365 9.32202 24.9829C9.65161 25.0195 9.96655 25.0342 10.3035 25.0342C12.2078 25.0342 13.9583 24.3896 15.3535 23.2983C13.5664 23.2617 12.0649 22.0898 11.5522 20.4785C12.1785 20.5701 12.7424 20.5701 13.387 20.4053C12.4668 20.2183 11.6397 19.7186 11.0462 18.9909C10.4527 18.2632 10.1295 17.3526 10.1313 16.4136V16.3623C10.6697 16.6663 11.3032 16.853 11.9661 16.8787C11.4088 16.5073 10.9519 16.0042 10.6357 15.4139C10.3194 14.8237 10.1538 14.1645 10.1533 13.4949C10.1533 12.7368 10.3511 12.0447 10.7063 11.4441C11.7277 12.7014 13.0022 13.7298 14.447 14.4623C15.8918 15.1948 17.4746 15.6151 19.0925 15.6958C18.5176 12.9309 20.583 10.6934 23.0659 10.6934C24.2378 10.6934 25.2925 11.1841 26.0359 11.9751C26.9551 11.803 27.834 11.4587 28.6177 10.9973C28.3137 11.9385 27.6765 12.7332 26.8306 13.2349C27.6509 13.147 28.4419 12.9199 29.1743 12.6013C28.6213 13.4143 27.9292 14.1357 27.1345 14.7107Z" fill="#FF4D47"/>
</svg>
